#!OML:ASF I:\Actors\actors\Patient Classification 2\Patient 1\Session 1\actor1.ASF
:FULLY-SPECIFIED
:DEGREES
473
root -2.34468 18.5345 5.70005 -4.50293 -11.2729 -4.33535
lowerback 14.215 -3.1814 10.2924
upperback 3.40438 -2.30138 9.12837
thorax -4.35346 -1.23317 4.38408
lowerneck -3.24085 -11.1404 -6.33899
upperneck 16.4044 -20.3699 27.6015
head 9.47929 -8.3351 8.44262
rclavicle -1.47101e-014 6.67916e-014
rhumerus -39.8263 -3.45265 -73.2727
rradius 44.8004
rwrist 6.22812
rhand -10.7011 -32.2913
rfingers 7.12502
rthumb 15.3084 -61.7047
lclavicle -1.47101e-014 6.67916e-014
lhumerus -41.7542 -18.3878 112.958
lradius 51.0081
lwrist 1.09403
lhand -3.17865 -27.895
lfingers 7.12502
lthumb 22.5425 0.809024
rfemur 0 0 0
rtibia 0
rfoot 0 0
rtoes 0
lfemur 3.71085 0.729734 -4.24282
ltibia 22.2655
lfoot -18.4799 14.4699
ltoes -59.2106
474
root -2.36612 18.5378 5.68214 -4.40498 -11.0212 -4.40454
lowerback 14.1645 -3.18373 10.423
upperback 3.38397 -2.28724 9.18196
thorax -4.35004 -1.22684 4.36646
lowerneck -3.47362 -10.9255 -6.07494
upperneck 16.5705 -20.0814 27.4429
head 9.47202 -8.16003 8.37691
rclavicle -7.55382e-015 9.54166e-014
rhumerus -39.3002 -3.50885 -73.1543
rradius 44.8821
rwrist 6.19602
rhand -11.4124 -31.8939
rfingers 7.12502
rthumb 14.6232 -61.3584
lclavicle -7.55382e-015 9.54166e-014
lhumerus -41.8266 -17.974 112.667
lradius 50.955
lwrist 0.946984
lhand -3.12822 -27.8448
lfingers 7.12502
lthumb 22.5909 0.853308
rfemur 0 0 0
rtibia 0
rfoot 0 0
rtoes 0
lfemur 3.40467 0.551501 -4.10975
ltibia 22.3851
lfoot -18.3971 14.4161
ltoes -59.0543
475
root -2.38666 18.5379 5.66895 -4.4368 -10.9601 -4.45546
lowerback 14.2001 -3.12806 10.565
upperback 3.44448 -2.19421 9.19606
thorax -4.30784 -1.18029 4.28586
lowerneck -3.72291 -10.7585 -5.71004
upperneck 16.7936 -19.8848 27.2553
head 9.49481 -8.01602 8.26969
rclavicle -8.46823e-014 9.22361e-014
rhumerus -38.7757 -3.58571 -73.1068
rradius 44.9372
rwrist 5.9021
rhand -12.1343 -31.6068
rfingers 7.12502
rthumb 13.9276 -61.1203
lclavicle -8.46823e-014 9.22361e-014
lhumerus -41.9439 -17.612 112.305
lradius 50.8749
lwrist 0.688502
lhand -3.48 -27.9947
lfingers 7.12502
lthumb 22.2532 0.744071
rfemur 0 0 0
rtibia 0
rfoot 0 0
rtoes 0
lfemur 3.32215 0.601133 -3.95773
ltibia 22.4964
lfoot -18.2118 14.3579
ltoes -59.1303
476
root -2.40741 18.5397 5.65424 -4.44546 -10.7891 -4.40382
lowerback 14.1767 -3.08611 10.616
upperback 3.5006 -2.14356 9.16453
thorax -4.23708 -1.15281 4.20937
lowerneck -3.87783 -10.5928 -5.29408
upperneck 16.9039 -19.6793 27.1468
head 9.46493 -7.87709 8.18586
rclavicle 2.34566e-014 1.90833e-014
rhumerus -38.1876 -3.70715 -73.0346
rradius 44.9835
rwrist 6.02841
rhand -12.0266 -31.8621
rfingers 7.12502
rthumb 14.0313 -61.3685
lclavicle 2.34566e-014 1.90833e-014
lhumerus -42.1079 -17.2646 111.846
lradius 50.9535
lwrist 0.498577
lhand -3.70862 -28.1721
lfingers 7.12502
lthumb 22.0337 0.592737
rfemur 0 0 0
rtibia 0
rfoot 0 0
rtoes 0
lfemur 3.14954 0.61875 -3.92397
ltibia 22.5969
lfoot -17.972 14.313
ltoes -59.2345
477
root -2.42756 18.5415 5.64078 -4.4624 -10.6185 -4.32769
lowerback 14.096 -3.04409 10.6679
upperback 3.58973 -2.10804 9.12501
thorax -4.09949 -1.13071 4.12138
lowerneck -4.03414 -10.4 -4.95676
upperneck 16.9979 -19.4403 27.1041
head 9.44163 -7.72524 8.14542
rclavicle -1.98785e-015 6.36111e-015
rhumerus -38.1602 -3.59569 -72.9614
rradius 45.5969
rwrist 5.73018
rhand -11.9736 -31.9539
rfingers 7.12502
rthumb 14.0825 -61.4567
lclavicle -1.98785e-015 6.36111e-015
lhumerus -42.2275 -16.825 111.319
lradius 51.0569
lwrist 0.0492814
lhand -3.90093 -28.4955
lfingers 7.12502
lthumb 21.8491 0.290975
rfemur 0 0 0
rtibia 0
rfoot 0 0
rtoes 0
lfemur 2.99741 0.633379 -3.91854
ltibia 22.6802
lfoot -17.7878 14.2331
ltoes -59.2292
478
root -2.44691 18.5432 5.62904 -4.46874 -10.4572 -4.27617
lowerback 14.0338 -2.98574 10.7434
upperback 3.66251 -2.0412 9.10803
thorax -3.98914 -1.09406 4.04167
lowerneck -4.19176 -10.2442 -4.69568
upperneck 17.1627 -19.2711 27.0591
head 9.46613 -7.60378 8.10999
rclavicle 7.55382e-015 8.26944e-014
rhumerus -37.4342 -3.78117 -72.9202
rradius 45.3742
rwrist 5.41032
rhand -12.0341 -31.8841
rfingers 7.12502
rthumb 14.0242 -61.391
lclavicle 7.55382e-015 8.26944e-014
lhumerus -42.3239 -16.3388 110.793
lradius 51.0424
lwrist -0.733471
lhand -4.32486 -28.8407
lfingers 7.12502
lthumb 21.442 -0.00732501
rfemur 0 0 0
rtibia 0
rfoot 0 0
rtoes 0
lfemur 2.85008 0.624525 -3.89007
ltibia 22.7605
lfoot -17.5993 14.1018
ltoes -59.1967
479
root -2.46559 18.546 5.61758 -4.48161 -10.2792 -4.21859
lowerback 14.0214 -2.91105 10.8006
upperback 3.72409 -1.94412 9.11218
thorax -3.91641 -1.04335 3.9934
lowerneck -4.35394 -10.1421 -4.43717
upperneck 17.3244 -19.1691 26.9719
head 9.49896 -7.51487 8.0474
rclavicle -2.26615e-014 -2.22639e-014
rhumerus -36.983 -4.04291 -72.7238
rradius 45.4049
rwrist 5.52555
rhand -11.9993 -31.7619
rfingers 7.12502
rthumb 14.0577 -61.2664
lclavicle -2.26615e-014 -2.22639e-014
lhumerus -42.4732 -15.8942 110.279
lradius 51.1258
lwrist -1.38458
lhand -4.33014 -29.0455
lfingers 7.12502
lthumb 21.4369 -0.211517
rfemur 0 0 0
rtibia 0
rfoot 0 0
rtoes 0
lfemur 2.71039 0.511429 -3.89492
ltibia 22.8405
lfoot -17.4579 14.0195
ltoes -59.1314
480
root -2.48186 18.5489 5.60753 -4.55055 -10.1584 -4.19222
lowerback 14.0629 -2.86527 10.8968
upperback 3.81859 -1.87434 9.14061
thorax -3.83756 -1.00589 3.95743
lowerneck -4.5511 -10.0081 -4.25963
upperneck 17.5969 -19.0319 26.8186
head 9.57028 -7.40755 7.98231
rclavicle -1.31198e-014 -3.18055e-014
rhumerus -36.7773 -4.0918 -72.4542
rradius 45.7441
rwrist 5.76691
rhand -11.9643 -31.6075
rfingers 7.12502
rthumb 14.0914 -61.1097
lclavicle -1.31198e-014 -3.18055e-014
lhumerus -42.6762 -15.2962 109.716
lradius 51.3635
lwrist -1.953
lhand -3.98947 -29.4142
lfingers 7.12502
lthumb 21.7641 -0.617851
rfemur 0 0 0
rtibia 0
rfoot 0 0
rtoes 0
lfemur 2.65418 0.402715 -3.88099
ltibia 22.9328
lfoot -17.3438 14.0096
ltoes -59.1249
481
root -2.49583 18.5505 5.60071 -4.64182 -10.0923 -4.17254
lowerback 14.0966 -2.82586 11.0311
upperback 3.93276 -1.8126 9.15999
thorax -3.73413 -0.971583 3.891
lowerneck -4.78926 -9.81362 -4.25754
upperneck 18.0731 -18.8792 26.7625
head 9.75146 -7.27913 7.99875
rclavicle -3.18055e-014 6.36111e-015
rhumerus -36.0947 -4.16697 -72.2886
rradius 45.5176
rwrist 5.59992
rhand -12.5393 -31.1576
rfingers 7.12502
rthumb 13.5373 -60.6975
lclavicle -3.18055e-014 6.36111e-015
lhumerus -42.9883 -14.6967 109.139
lradius 51.7134
lwrist -2.48483
lhand -4.05228 -29.833
lfingers 7.12502
lthumb 21.7038 -1.02965
rfemur 0 0 0
rtibia 0
rfoot 0 0
rtoes 0
lfemur 2.63758 0.378101 -3.85715
ltibia 23.0358
lfoot -17.2051 13.9877
ltoes -59.2155
482
root -2.50961 18.5519 5.59218 -4.66778 -9.9837 -4.13718
lowerback 14.1043 -2.75044 11.1774
upperback 4.00923 -1.70138 9.15806
thorax -3.65733 -0.913599 3.78604
lowerneck -5.0766 -9.72946 -3.88844
upperneck 18.551 -18.8597 26.4434
head 9.89985 -7.19754 7.82446
rclavicle -2.42517e-014 -6.04305e-014
rhumerus -35.7207 -4.26142 -72.1272
rradius 45.5061
rwrist 4.93651
rhand -13.465 -30.4949
rfingers 7.12502
rthumb 12.6449 -60.0921
lclavicle -2.42517e-014 -6.04305e-014
lhumerus -43.4543 -14.4336 108.639
lradius 52.2346
lwrist -2.68295
lhand -4.31125 -29.9768
lfingers 7.12502
lthumb 21.455 -1.14487
rfemur 0 0 0
rtibia 0
rfoot 0 0
rtoes 0
lfemur 2.52913 0.406055 -3.83789
ltibia 23.1297
lfoot -17.0386 13.9291
ltoes -59.2637
483
root -2.52401 18.5532 5.58099 -4.6491 -9.82195 -4.11763
lowerback 14.1354 -2.69188 11.316
upperback 4.04237 -1.60209 9.16576
thorax -3.63934 -0.863492 3.70123
lowerneck -5.29985 -9.60371 -3.70331
upperneck 19.0653 -18.824 26.3286
head 10.0935 -7.1104 7.77264
rclavicle 0 3.18055e-014
rhumerus -35.8808 -4.25083 -71.9138
rradius 46.1415
rwrist 4.37101
rhand -13.9084 -30.2078
rfingers 7.12502
rthumb 12.2174 -59.8309
lclavicle 0 3.18055e-014
lhumerus -44.03 -14.2871 108.162
lradius 52.9335
lwrist -2.62382
lhand -4.28917 -29.9985
lfingers 7.12502
lthumb 21.4763 -1.16905
rfemur 0 0 0
rtibia 0
rfoot 0 0
rtoes 0
lfemur 2.36416 0.405084 -3.79973
ltibia 23.2015
lfoot -16.8615 13.8748
ltoes -59.2194
484
root -2.53915 18.5546 5.57151 -4.65008 -9.66092 -4.08843
lowerback 14.1583 -2.65628 11.3889
upperback 4.09358 -1.54594 9.1957
thorax -3.59579 -0.833653 3.68326
lowerneck -5.48416 -9.48433 -3.49513
upperneck 19.6852 -18.7873 26.0547
head 10.295 -7.02658 7.66231
rclavicle 1.82882e-014 -3.18055e-014
rhumerus -35.8005 -4.37734 -71.6753
rradius 46.7572
rwrist 4.3725
rhand -13.2693 -30.8663
rfingers 7.12502
rthumb 12.8336 -60.4517
lclavicle 1.82882e-014 -3.18055e-014
lhumerus -44.6283 -14.1343 107.706
lradius 53.6916
lwrist -2.52346
lhand -4.19317 -30.1359
lfingers 7.12502
lthumb 21.5685 -1.31694
rfemur 0 0 0
rtibia 0
rfoot 0 0
rtoes 0
lfemur 2.23653 0.362328 -3.77937
ltibia 23.2611
lfoot -16.7044 13.8242
ltoes -59.1691
485
root -2.55232 18.5564 5.56372 -4.65755 -9.50691 -4.06955
lowerback 14.1728 -2.6173 11.4711
upperback 4.15719 -1.48701 9.24089
thorax -3.5338 -0.801808 3.67554
lowerneck -5.70827 -9.39547 -3.17573
upperneck 20.3816 -18.778 25.5845
head 10.5028 -6.95096 7.45249
rclavicle 2.14687e-014 -7.63333e-014
rhumerus -35.5558 -4.62483 -71.3834
rradius 47.3728
rwrist 4.49834
rhand -11.9152 -31.8837
rfingers 7.12502
rthumb 14.1387 -61.3826
lclavicle 2.14687e-014 -7.63333e-014
lhumerus -45.2853 -14.119 107.332
lradius 54.5146
lwrist -2.42563
lhand -4.19226 -30.3303
lfingers 7.12502
lthumb 21.5693 -1.51141
rfemur 0 0 0
rtibia 0
rfoot 0 0
rtoes 0
lfemur 2.12884 0.300011 -3.7605
ltibia 23.3116
lfoot -16.6065 13.7683
ltoes -59.0381
